<svg id="svg-defs" version="1.1" xmlns="http://www.w3.org/2000/svg" xmlns:xlink="http://www.w3.org/1999/xlink">
	<defs>
		<symbol id="icon-instagram" viewBox="0 0 24 24">
			<title>icon-instagram</title>
			<path d="M12,4.316c2.499,0,2.794,0.009,3.781,0.055c0.913,0.042,1.408,0.194,1.738,0.322c0.437,0.17,0.748,0.373,1.076,0.7
				c0.328,0.328,0.53,0.639,0.7,1.076c0.128,0.33,0.28,0.825,0.322,1.737c0.045,0.987,0.055,1.283,0.055,3.781
				c0,2.498-0.009,2.794-0.055,3.781c-0.042,0.912-0.194,1.408-0.322,1.737c-0.17,0.437-0.373,0.749-0.7,1.076
				c-0.328,0.328-0.639,0.53-1.076,0.7c-0.33,0.128-0.825,0.28-1.738,0.322c-0.986,0.045-1.282,0.054-3.781,0.054
				c-2.499,0-2.794-0.009-3.781-0.054c-0.913-0.042-1.408-0.194-1.738-0.322c-0.437-0.17-0.748-0.373-1.076-0.7
				c-0.328-0.327-0.53-0.639-0.7-1.076c-0.128-0.33-0.28-0.825-0.322-1.737c-0.045-0.987-0.055-1.283-0.055-3.781
				c0-2.499,0.009-2.794,0.055-3.781c0.042-0.912,0.194-1.408,0.322-1.737c0.17-0.437,0.373-0.749,0.7-1.076
				c0.328-0.327,0.639-0.53,1.076-0.7c0.33-0.128,0.825-0.28,1.737-0.322C9.206,4.326,9.502,4.316,12,4.316 M12,2.63
				c-2.541,0-2.86,0.011-3.858,0.057C7.146,2.732,6.466,2.891,5.871,3.122c-0.616,0.239-1.138,0.56-1.658,1.08
				s-0.84,1.042-1.079,1.657C2.903,6.454,2.745,7.134,2.699,8.13c-0.045,0.998-0.056,1.316-0.056,3.858s0.011,2.86,0.056,3.858
				c0.046,0.996,0.204,1.676,0.435,2.271c0.239,0.615,0.559,1.137,1.079,1.657s1.042,0.84,1.658,1.079
				c0.595,0.231,1.275,0.39,2.271,0.435C9.14,21.334,9.459,21.345,12,21.345c2.542,0,2.86-0.011,3.858-0.056
				c0.996-0.045,1.676-0.204,2.271-0.435c0.615-0.239,1.137-0.559,1.657-1.079c0.521-0.52,0.84-1.042,1.08-1.657
				c0.231-0.595,0.389-1.275,0.435-2.271c0.046-0.998,0.057-1.316,0.057-3.858s-0.011-2.86-0.057-3.858
				c-0.045-0.996-0.203-1.676-0.435-2.271c-0.239-0.615-0.559-1.137-1.08-1.657c-0.52-0.52-1.042-0.84-1.657-1.08
				c-0.595-0.231-1.276-0.389-2.271-0.435C14.86,2.641,14.542,2.63,12,2.63L12,2.63z"/>
			<path d="M12,7.183c-2.653,0-4.805,2.151-4.805,4.805S9.347,16.793,12,16.793c2.654,0,4.805-2.151,4.805-4.805
				S14.654,7.183,12,7.183z M12,15.107c-1.723,0-3.119-1.396-3.119-3.119S10.277,8.869,12,8.869c1.723,0,3.12,1.396,3.12,3.119
				S13.723,15.107,12,15.107z"/>
			<circle cx="16.995" cy="6.993" r="1.123"/>
		</symbol>
		<symbol id="icon-tumblr" viewBox="0 0 24 24">
			<title>icon-tumblr</title>
			<path fill-rule="evenodd" clip-rule="evenodd" d="M9.291,2.627c1.852,0,3.703,0,5.555,0c0.067,1.372,0.01,2.868,0.029,4.289
				c0.229,0.103,0.51,0.057,0.777,0.057c0.766,0,1.67-0.023,2.418,0.029c0,1.478,0,2.955,0,4.432c-0.998,0.067-2.12,0.01-3.166,0.029
				c-0.052,0.75-0.029,1.581-0.029,2.389c0,0.81-0.045,1.614,0.058,2.332c0.835,0.067,1.794,0.01,2.677,0.028
				c0.36,0.947,0.712,2.002,1.065,3.051c0.054,0.16,0.152,0.341,0.144,0.432c-0.018,0.208-0.456,0.582-0.72,0.749
				c-0.858,0.54-2.194,0.878-3.425,0.92c-1.97,0.068-3.742-0.256-4.95-0.863c-1.266-0.637-2.209-1.795-2.475-3.339
				c-0.288-1.668,0.034-3.574-0.086-5.699c-0.604-0.067-1.333-0.01-1.986-0.029c0-1.276,0-2.552,0-3.828
				c1.804-0.51,2.835-1.625,3.252-3.425C8.578,3.53,8.573,2.722,9.291,2.627z M11.478,3.491c-0.275,2.275-1.351,3.751-3.08,4.519
				c-0.103,0.045-0.24,0.099-0.317,0.201c-0.048,0.749-0.047,1.697,0,2.446c0.586,0.086,1.372-0.028,1.958,0.058
				c0.202,2.541-0.42,5.212,0.374,7.167c0.732,1.803,2.371,2.86,4.864,2.706c0.757-0.047,1.565-0.308,2.13-0.634
				c0.187-0.107,0.492-0.261,0.518-0.431c0.02-0.134-0.139-0.387-0.201-0.576c-0.214-0.647-0.375-1.237-0.604-1.785
				c-0.662,0.266-1.831,0.397-2.389,0.058c-0.9-0.548-0.633-2.308-0.633-3.828c0-0.965,0-1.921,0-2.705
				c1.056-0.019,2.187,0.038,3.195-0.029c0-0.959,0-1.918,0-2.878c-0.998-0.086-2.196,0.029-3.195-0.058c0-1.429,0-2.859,0-4.288
				c-0.796-0.067-1.717-0.01-2.561-0.029C11.499,3.417,11.477,3.441,11.478,3.491z"/>
		</symbol>
		<symbol id="icon-etsy" viewBox="0 0 24 24">
			<title>icon-etsy</title>
			<path d="M9.35,4.553c0-0.254,0.025-0.407,0.457-0.407h5.817c1.016,0,1.575,0.864,1.981,2.489l0.33,1.296h0.991
				c0.178-3.683,0.331-5.284,0.331-5.284s-2.49,0.28-3.963,0.28H7.851L3.863,2.8v1.067l1.347,0.254c0.94,0.178,1.168,0.381,1.245,1.245
				c0,0,0.076,2.54,0.076,6.731c0,4.191-0.076,6.706-0.076,6.706c0,0.762-0.305,1.042-1.245,1.219l-1.347,0.254v1.066l3.988-0.126
				h6.655c1.499,0,4.979,0.126,4.979,0.126c0.076-0.914,0.584-5.055,0.66-5.512h-0.939l-0.991,2.261
				c-0.788,1.778-1.931,1.905-3.201,1.905h-3.785c-1.27,0-1.879-0.508-1.879-1.601v-5.792c0,0,2.819,0,3.734,0.076
				c0.711,0.051,1.143,0.254,1.372,1.245l0.305,1.321h1.093l-0.076-3.328l0.152-3.353h-1.092l-0.356,1.473
				c-0.229,0.965-0.381,1.143-1.372,1.245c-1.295,0.127-3.759,0.102-3.759,0.102V4.553z"/>
			</svg>
		</symbol>
	</defs>
</svg>
