<?xml version="1.0" encoding="utf-8"?>
<!-- Generator: Adobe Illustrator 15.0.2, SVG Export Plug-In . SVG Version: 6.00 Build 0)  -->
<!DOCTYPE svg PUBLIC "-//W3C//DTD SVG 1.0//EN" "http://www.w3.org/TR/2001/REC-SVG-20010904/DTD/svg10.dtd">
<svg version="1.0" id="instagram" xmlns="http://www.w3.org/2000/svg" xmlns:xlink="http://www.w3.org/1999/xlink" x="0px" y="0px"
	 width="24px" height="24px" viewBox="0 0 24 24" enable-background="new 0 0 24 24" xml:space="preserve">
<g>
	<path d="M12,4.316c2.499,0,2.794,0.009,3.781,0.055c0.913,0.042,1.408,0.194,1.738,0.322c0.437,0.17,0.748,0.373,1.076,0.7
		c0.328,0.328,0.53,0.639,0.7,1.076c0.128,0.33,0.28,0.825,0.322,1.737c0.045,0.987,0.055,1.283,0.055,3.781
		c0,2.498-0.009,2.794-0.055,3.781c-0.042,0.912-0.194,1.408-0.322,1.737c-0.17,0.437-0.373,0.749-0.7,1.076
		c-0.328,0.328-0.639,0.53-1.076,0.7c-0.33,0.128-0.825,0.28-1.738,0.322c-0.986,0.045-1.282,0.054-3.781,0.054
		c-2.499,0-2.794-0.009-3.781-0.054c-0.913-0.042-1.408-0.194-1.738-0.322c-0.437-0.17-0.748-0.373-1.076-0.7
		c-0.328-0.327-0.53-0.639-0.7-1.076c-0.128-0.33-0.28-0.825-0.322-1.737c-0.045-0.987-0.055-1.283-0.055-3.781
		c0-2.499,0.009-2.794,0.055-3.781c0.042-0.912,0.194-1.408,0.322-1.737c0.17-0.437,0.373-0.749,0.7-1.076
		c0.328-0.327,0.639-0.53,1.076-0.7c0.33-0.128,0.825-0.28,1.737-0.322C9.206,4.326,9.502,4.316,12,4.316 M12,2.63
		c-2.541,0-2.86,0.011-3.858,0.057C7.146,2.732,6.466,2.891,5.871,3.122c-0.616,0.239-1.138,0.56-1.658,1.08
		s-0.84,1.042-1.079,1.657C2.903,6.454,2.745,7.134,2.699,8.13c-0.045,0.998-0.056,1.316-0.056,3.858s0.011,2.86,0.056,3.858
		c0.046,0.996,0.204,1.676,0.435,2.271c0.239,0.615,0.559,1.137,1.079,1.657s1.042,0.84,1.658,1.079
		c0.595,0.231,1.275,0.39,2.271,0.435C9.14,21.334,9.459,21.345,12,21.345c2.542,0,2.86-0.011,3.858-0.056
		c0.996-0.045,1.676-0.204,2.271-0.435c0.615-0.239,1.137-0.559,1.657-1.079c0.521-0.52,0.84-1.042,1.08-1.657
		c0.231-0.595,0.389-1.275,0.435-2.271c0.046-0.998,0.057-1.316,0.057-3.858s-0.011-2.86-0.057-3.858
		c-0.045-0.996-0.203-1.676-0.435-2.271c-0.239-0.615-0.559-1.137-1.08-1.657c-0.52-0.52-1.042-0.84-1.657-1.08
		c-0.595-0.231-1.276-0.389-2.271-0.435C14.86,2.641,14.542,2.63,12,2.63L12,2.63z"/>
	<path d="M12,7.183c-2.653,0-4.805,2.151-4.805,4.805S9.347,16.793,12,16.793c2.654,0,4.805-2.151,4.805-4.805
		S14.654,7.183,12,7.183z M12,15.107c-1.723,0-3.119-1.396-3.119-3.119S10.277,8.869,12,8.869c1.723,0,3.12,1.396,3.12,3.119
		S13.723,15.107,12,15.107z"/>
	<circle cx="16.995" cy="6.993" r="1.123"/>
</g>
</svg>
