<?xml version="1.0" encoding="utf-8"?>
<!-- Generator: Adobe Illustrator 15.0.2, SVG Export Plug-In . SVG Version: 6.00 Build 0)  -->
<!DOCTYPE svg PUBLIC "-//W3C//DTD SVG 1.0//EN" "http://www.w3.org/TR/2001/REC-SVG-20010904/DTD/svg10.dtd">
<svg version="1.0" id="etsy" xmlns="http://www.w3.org/2000/svg" xmlns:xlink="http://www.w3.org/1999/xlink" x="0px" y="0px"
	 width="24px" height="24px" viewBox="0 0 24 24" enable-background="new 0 0 24 24" xml:space="preserve">
<path d="M9.35,4.553c0-0.254,0.025-0.407,0.457-0.407h5.817c1.016,0,1.575,0.864,1.981,2.489l0.33,1.296h0.991
	c0.178-3.683,0.331-5.284,0.331-5.284s-2.49,0.28-3.963,0.28H7.851L3.863,2.8v1.067l1.347,0.254c0.94,0.178,1.168,0.381,1.245,1.245
	c0,0,0.076,2.54,0.076,6.731c0,4.191-0.076,6.706-0.076,6.706c0,0.762-0.305,1.042-1.245,1.219l-1.347,0.254v1.066l3.988-0.126
	h6.655c1.499,0,4.979,0.126,4.979,0.126c0.076-0.914,0.584-5.055,0.66-5.512h-0.939l-0.991,2.261
	c-0.788,1.778-1.931,1.905-3.201,1.905h-3.785c-1.27,0-1.879-0.508-1.879-1.601v-5.792c0,0,2.819,0,3.734,0.076
	c0.711,0.051,1.143,0.254,1.372,1.245l0.305,1.321h1.093l-0.076-3.328l0.152-3.353h-1.092l-0.356,1.473
	c-0.229,0.965-0.381,1.143-1.372,1.245c-1.295,0.127-3.759,0.102-3.759,0.102V4.553z"/>
</svg>
