<?xml version="1.0" encoding="utf-8"?>
<!-- Generator: Adobe Illustrator 15.0.2, SVG Export Plug-In . SVG Version: 6.00 Build 0)  -->
<!DOCTYPE svg PUBLIC "-//W3C//DTD SVG 1.0//EN" "http://www.w3.org/TR/2001/REC-SVG-20010904/DTD/svg10.dtd">
<svg version="1.0" id="tumblr" xmlns="http://www.w3.org/2000/svg" xmlns:xlink="http://www.w3.org/1999/xlink" x="0px" y="0px"
	 width="24px" height="24px" viewBox="0 0 24 24" enable-background="new 0 0 24 24" xml:space="preserve">
<g>
	<g>
		<path fill-rule="evenodd" clip-rule="evenodd" d="M9.291,2.627c1.852,0,3.703,0,5.555,0c0.067,1.372,0.01,2.868,0.029,4.289
			c0.229,0.103,0.51,0.057,0.777,0.057c0.766,0,1.67-0.023,2.418,0.029c0,1.478,0,2.955,0,4.432c-0.998,0.067-2.12,0.01-3.166,0.029
			c-0.052,0.75-0.029,1.581-0.029,2.389c0,0.81-0.045,1.614,0.058,2.332c0.835,0.067,1.794,0.01,2.677,0.028
			c0.36,0.947,0.712,2.002,1.065,3.051c0.054,0.16,0.152,0.341,0.144,0.432c-0.018,0.208-0.456,0.582-0.72,0.749
			c-0.858,0.54-2.194,0.878-3.425,0.92c-1.97,0.068-3.742-0.256-4.95-0.863c-1.266-0.637-2.209-1.795-2.475-3.339
			c-0.288-1.668,0.034-3.574-0.086-5.699c-0.604-0.067-1.333-0.01-1.986-0.029c0-1.276,0-2.552,0-3.828
			c1.804-0.51,2.835-1.625,3.252-3.425C8.578,3.53,8.573,2.722,9.291,2.627z M11.478,3.491c-0.275,2.275-1.351,3.751-3.08,4.519
			c-0.103,0.045-0.24,0.099-0.317,0.201c-0.048,0.749-0.047,1.697,0,2.446c0.586,0.086,1.372-0.028,1.958,0.058
			c0.202,2.541-0.42,5.212,0.374,7.167c0.732,1.803,2.371,2.86,4.864,2.706c0.757-0.047,1.565-0.308,2.13-0.634
			c0.187-0.107,0.492-0.261,0.518-0.431c0.02-0.134-0.139-0.387-0.201-0.576c-0.214-0.647-0.375-1.237-0.604-1.785
			c-0.662,0.266-1.831,0.397-2.389,0.058c-0.9-0.548-0.633-2.308-0.633-3.828c0-0.965,0-1.921,0-2.705
			c1.056-0.019,2.187,0.038,3.195-0.029c0-0.959,0-1.918,0-2.878c-0.998-0.086-2.196,0.029-3.195-0.058c0-1.429,0-2.859,0-4.288
			c-0.796-0.067-1.717-0.01-2.561-0.029C11.499,3.417,11.477,3.441,11.478,3.491z"/>
	</g>
</g>
</svg>
