<?xml version="1.0" encoding="utf-8"?>
<!-- Generator: Adobe Illustrator 15.0.2, SVG Export Plug-In . SVG Version: 6.00 Build 0)  -->
<!DOCTYPE svg PUBLIC "-//W3C//DTD SVG 1.0//EN" "http://www.w3.org/TR/2001/REC-SVG-20010904/DTD/svg10.dtd">
<svg version="1.0" id="etsy" xmlns="http://www.w3.org/2000/svg" xmlns:xlink="http://www.w3.org/1999/xlink" x="0px" y="0px"
	 width="500px" height="500px" viewBox="0 0 500 500" enable-background="new 0 0 500 500" xml:space="preserve">
<path d="M182.039,58.694c0-6.513,0.651-10.421,11.723-10.421h149.145c26.051,0,40.38,22.144,50.8,63.827l8.467,33.215h25.4
	c4.559-94.437,8.467-135.468,8.467-135.468s-63.826,7.165-101.601,7.165H143.613L41.361,13.755V41.11l34.518,6.513
	c24.098,4.559,29.959,9.769,31.913,31.913c0,0,1.954,65.128,1.954,172.591c0,107.462-1.954,171.939-1.954,171.939
	c0,19.539-7.815,26.703-31.913,31.263l-34.518,6.512v27.354l102.252-3.256h170.638c38.426,0,127.651,3.256,127.651,3.256
	c1.954-23.446,14.98-129.606,16.935-141.33h-24.099l-25.4,57.965c-20.189,45.591-49.497,48.847-82.062,48.847h-97.042
	c-32.564,0-48.195-13.025-48.195-41.031V265.152c0,0,72.293,0,95.738,1.953c18.236,1.304,29.309,6.514,35.17,31.914l7.815,33.866
	h28.006l-1.954-85.318l3.908-85.97h-28.006l-9.118,37.774c-5.861,24.749-9.769,29.309-35.169,31.914
	c-33.216,3.256-96.391,2.605-96.391,2.605V58.694z"/>
</svg>
