<?xml version="1.0" encoding="utf-8"?>
<!-- Generator: Adobe Illustrator 15.0.2, SVG Export Plug-In . SVG Version: 6.00 Build 0)  -->
<!DOCTYPE svg PUBLIC "-//W3C//DTD SVG 1.0//EN" "http://www.w3.org/TR/2001/REC-SVG-20010904/DTD/svg10.dtd">
<svg version="1.0" id="instagram" xmlns="http://www.w3.org/2000/svg" xmlns:xlink="http://www.w3.org/1999/xlink" x="0px" y="0px"
	 width="500px" height="500px" viewBox="0 0 500 500" enable-background="new 0 0 500 500" xml:space="preserve">
<g>
	<path d="M250,52.642c64.062,0,71.649,0.244,96.948,1.398c23.393,1.067,36.096,4.976,44.55,8.261
		c11.198,4.353,19.191,9.552,27.587,17.947c8.396,8.396,13.595,16.388,17.947,27.586c3.285,8.454,7.193,21.159,8.261,44.55
		c1.154,25.299,1.398,32.887,1.398,96.949s-0.244,71.649-1.398,96.948c-1.067,23.393-4.976,36.096-8.261,44.55
		c-4.353,11.198-9.552,19.191-17.947,27.587s-16.389,13.595-27.587,17.947c-8.454,3.285-21.157,7.193-44.55,8.261
		c-25.295,1.154-32.882,1.398-96.948,1.398c-64.066,0-71.653-0.244-96.948-1.398c-23.392-1.067-36.096-4.976-44.55-8.261
		c-11.199-4.353-19.191-9.552-27.586-17.947c-8.396-8.396-13.595-16.389-17.948-27.587c-3.285-8.454-7.193-21.157-8.261-44.549
		c-1.154-25.3-1.398-32.888-1.398-96.949s0.244-71.65,1.398-96.948c1.067-23.392,4.976-36.096,8.261-44.55
		c4.353-11.199,9.552-19.191,17.947-27.586c8.396-8.396,16.388-13.595,27.586-17.948c8.454-3.285,21.159-7.193,44.55-8.261
		C178.35,52.886,185.938,52.642,250,52.642 M250,9.413c-65.159,0-73.329,0.276-98.918,1.443
		c-25.537,1.166-42.978,5.221-58.239,11.152c-15.777,6.131-29.157,14.334-42.495,27.672S28.806,76.399,22.675,92.176
		c-5.932,15.261-9.987,32.701-11.152,58.239c-1.167,25.589-1.443,33.759-1.443,98.918s0.276,73.328,1.443,98.919
		c1.166,25.537,5.221,42.978,11.152,58.238c6.131,15.776,14.334,29.157,27.672,42.495s26.718,21.541,42.495,27.673
		c15.261,5.931,32.702,9.987,58.239,11.151c25.589,1.168,33.76,1.444,98.918,1.444c65.159,0,73.328-0.276,98.919-1.444
		c25.537-1.164,42.978-5.221,58.238-11.151c15.777-6.132,29.157-14.335,42.495-27.673s21.541-26.718,27.673-42.495
		c5.931-15.261,9.987-32.701,11.151-58.238c1.168-25.591,1.444-33.76,1.444-98.919c0-65.159-0.276-73.329-1.444-98.918
		c-1.164-25.538-5.221-42.978-11.151-58.239c-6.132-15.777-14.335-29.157-27.673-42.495s-26.718-21.542-42.495-27.672
		c-15.261-5.932-32.701-9.987-58.238-11.152C323.328,9.688,315.159,9.413,250,9.413L250,9.413z"/>
	<path d="M250,126.13c-68.043,0-123.203,55.16-123.203,123.203S181.957,372.535,250,372.535s123.202-55.159,123.202-123.202
		S318.043,126.13,250,126.13z M250,329.307c-44.168,0-79.974-35.806-79.974-79.974c0-44.168,35.805-79.974,79.974-79.974
		c44.168,0,79.974,35.805,79.974,79.974C329.974,293.501,294.168,329.307,250,329.307z"/>
	<circle cx="378.07" cy="121.263" r="28.791"/>
</g>
</svg>
