<?xml version="1.0" encoding="utf-8"?>
<!-- Generator: Adobe Illustrator 15.0.2, SVG Export Plug-In . SVG Version: 6.00 Build 0)  -->
<!DOCTYPE svg PUBLIC "-//W3C//DTD SVG 1.0//EN" "http://www.w3.org/TR/2001/REC-SVG-20010904/DTD/svg10.dtd">
<svg version="1.0" id="tumblr" xmlns="http://www.w3.org/2000/svg" xmlns:xlink="http://www.w3.org/1999/xlink" x="0px" y="0px"
	 width="500px" height="500px" viewBox="0 0 500 500" enable-background="new 0 0 500 500" xml:space="preserve">
<g>
	<g>
		<path fill-rule="evenodd" clip-rule="evenodd" d="M180.521,9.333c47.476,0,94.951,0,142.427,0
			c1.719,35.179,0.248,73.548,0.737,109.957c5.878,2.633,13.067,1.476,19.926,1.476c19.633,0,42.801-0.598,61.988,0.738
			c0,37.882,0,75.764,0,113.647c-25.588,1.716-54.359,0.25-81.176,0.738c-1.344,19.24-0.738,40.527-0.738,61.251
			c0,20.771-1.152,41.366,1.477,59.775c21.408,1.715,45.994,0.251,68.631,0.737c9.24,24.281,18.275,51.331,27.305,78.225
			c1.377,4.102,3.892,8.74,3.689,11.069c-0.465,5.34-11.677,14.922-18.449,19.188c-22,13.851-56.242,22.522-87.817,23.614
			c-50.524,1.747-95.948-6.562-126.93-22.139c-32.465-16.323-56.639-46.016-63.465-85.604c-7.375-42.773,0.877-91.626-2.214-146.117
			c-15.498-1.721-34.191-0.247-50.919-0.738c0-32.717,0-65.434,0-98.149c46.257-13.096,72.693-41.669,83.39-87.818
			C162.257,32.467,162.127,11.764,180.521,9.333z M236.606,31.473c-7.062,58.321-34.628,96.175-78.962,115.86
			c-2.626,1.167-6.147,2.53-8.118,5.166c-1.246,19.205-1.208,43.517,0,62.727c15.019,2.2,35.166-0.728,50.182,1.476
			c5.182,65.135-10.759,133.624,9.594,183.753c18.767,46.222,60.786,73.339,124.716,69.368c19.416-1.206,40.141-7.884,54.609-16.235
			c4.785-2.763,12.616-6.684,13.283-11.069c0.52-3.417-3.564-9.921-5.166-14.759c-5.491-16.595-9.598-31.707-15.497-45.754
			c-16.969,6.827-46.938,10.186-61.251,1.476c-23.074-14.043-16.235-59.165-16.235-98.149c0-24.737,0-49.259,0-69.368
			c27.069-0.482,56.071,0.97,81.914-0.738c0-24.599,0-49.198,0-73.796c-25.592-2.206-56.322,0.729-81.914-1.476
			c0-36.652,0-73.304,0-109.957c-20.425-1.714-44.025-0.251-65.679-0.738C237.155,29.561,236.574,30.21,236.606,31.473z"/>
	</g>
</g>
</svg>
