<?xml version="1.0" encoding="utf-8"?>
<!-- Generator: Adobe Illustrator 15.0.2, SVG Export Plug-In . SVG Version: 6.00 Build 0)  -->
<!DOCTYPE svg PUBLIC "-//W3C//DTD SVG 1.0//EN" "http://www.w3.org/TR/2001/REC-SVG-20010904/DTD/svg10.dtd">
<svg version="1.0" id="about_me" xmlns="http://www.w3.org/2000/svg" xmlns:xlink="http://www.w3.org/1999/xlink" x="0px" y="0px"
	 width="800px" height="800px" viewBox="0 0 800 800" enable-background="new 0 0 800 800" xml:space="preserve">
<g>
	<path d="M375.367,414.182c20.732,14.848,53.875,1.13,57.74-18.371c-14.512,2.383-30.825,30.102-45.93,9.185
		c9.185-5.867,14.558-17.785,26.247-22.308c6.9-2.672,18.527,1.398,22.307-7.875c-2.89-7.783-9.627-0.026-15.746-3.937
		c8.007-13.894,18.999-30.227,18.371-48.555c-9.397-10.052-19.623-4.985-27.558,1.313c-14.629,11.613-31.498,39.441-38.058,53.803
		c-8.601,0.142-21.071-3.749-23.617,5.25c5.254,4.875,14.353,3.336,22.309,2.624c-0.945,7.505,1.4,11.723,1.309,18.373
		c-8.347,6.958-18.152,12.464-32.805,13.122c-18.452-11.414,7.33-31.463,1.314-41.993c-9.586-1.457-8.84,9.758-11.81,14.436
		c-6.853,10.788-18.817,22.097-30.183,26.245c-16.875-16.044,13.465-30.092,9.184-45.929c-12.507,2.802-13.478,17.14-27.559,18.37
		c-6.417-29.615-43.46-12.458-59.053-1.312c-2.972-7.086-12.277-7.844-15.746-14.434c8.535-17.922,28.962-48.901-2.624-55.116
		c-33.274,16.607-60.446,52.754-55.114,95.795c-11.179,6.387-40.577,17.848-45.93,0c-3.352-11.172,5.033-19.82,7.871-30.181
		c-32.996-44.167-64.633,43.401-95.795,47.242c0.95,2.986,1.169,6.704,2.624,9.185c12.066-1.492,19.093-8.025,27.558-13.123
		c14.625,21.873,33.502-3.086,48.556-7.873c-0.958,6.206,1.872,8.626,3.935,11.812c19.8,7.69,38.542-1.683,53.805-9.188
		c17.496,25.652,62.129,13.774,73.488-9.186c9.305,24.733,40.563,18.299,52.491,0c3.259-4.611,1.162-14.582,9.186-14.435
		c0.38,7.929-1.051,17.673,1.31,23.62c14.539,8.85,25.765-4.791,35.434-9.186C329.453,434.133,361.372,421.105,375.367,414.182z
		 M419.983,335.444c-0.16,22.952-6.119,43.489-35.431,40.682C391.704,357.908,399.81,340.643,419.983,335.444z M380.615,387.936
		c3.265-3.732,9.448-4.548,17.06-3.936c-4.157,6.34-7.577,13.419-17.06,14.435C380.615,394.934,380.615,391.436,380.615,387.936z
		 M70.917,420.742c-18.214-14.209,3.857-41.226,23.622-41.992C101.465,397.26,82.979,412.529,70.917,420.742z M215.267,394.498
		c-5.159,2.822-9.97,0.203-14.433-1.312C197.931,377.219,216.552,385.666,215.267,394.498z M183.773,344.631
		c5.613-4.294,12.709-6.654,19.684-1.312c-3.354,32.077-25.422,45.44-44.616,61.677C156.34,382.798,170.647,354.671,183.773,344.631
		z M162.776,416.807c5.296-11.329,18.418-14.828,24.935-24.933c4.661,9.073,17.839,13.035,28.869,11.811
		C213.046,426.926,177.173,433.093,162.776,416.807z M246.763,385.312c5.162,7.962,13.121,13.125,24.933,14.435
		C264.753,437.46,215.513,406.494,246.763,385.312z M269.071,393.186c-3.748-2.813-6.126-6.995-6.561-13.124
		c6.26,1.175,9.589,5.284,10.498,11.812C271.118,394.778,269.806,390.222,269.071,393.186z"/>
	<path d="M695.562,339.382c13.219,1.41,20.107-3.513,18.371-17.06C703.533,306.408,681.818,327.507,695.562,339.382z
		 M704.747,323.635c7.673,3.576-2.262,13.509-7.872,7.874C696.388,325.772,701.405,325.543,704.747,323.635z"/>
	<path d="M766.424,330.197c2.159-23.444-39.069-8.25-18.371,10.497C759.51,341.004,765.699,338.073,766.424,330.197z
		 M759.861,331.509c-1.748,1.873-7.434,1.873-9.184,0c-1.241-7.222,4.692-8.72,9.184-6.562
		C759.861,327.134,759.861,329.321,759.861,331.509z"/>
	<path d="M736.243,343.319c-20.713-2.135-34.003,9.466-28.872,28.87c6.074,5.005,19.326,5.401,17.06-7.874
		c0.615-4.552-7.122-0.753-7.871-3.938c2.063-6.685,7.315-10.178,17.056-9.185c18.539,42.888-43.487,73.759-83.982,57.741
		c8.111-9.559,23.877-21.9,17.06-38.057c-22.824-7.256-35.963,14.842-34.122,40.68c-8.171,3.064-20.541,11.898-30.182,5.25
		c-3.904-15.844,10.52-24.379,10.5-40.68c-4.707,0.332-4.812-3.94-9.188-3.937c-11.482,3.397-22.104,14.629-28.869,18.371
		c-0.932-4.866,2.238-5.632,1.312-10.499c-14.818-11.07-27.138,5.548-38.056,10.499c0.033-5.947,4.374-9.037,1.314-14.434
		c-22.911-0.454-41.736,12.916-56.429,24.932c-8.309,6.794-18.773,15.914-19.684,24.933c23.085-12.345,38.66-39.199,66.923-41.992
		c-0.572,17.798-14.744,22-17.058,38.057c18.997-5.107,29.254-37.199,53.802-36.745c-1.374,16.124-14.607,20.385-15.746,36.745
		c11.762-1.359,18.601-12.517,26.245-19.685c7.754-7.272,14.6-17.237,24.933-18.373c-1.752,12.446-13.765,20.491-10.496,32.807
		c4.954,18.681,34.393,6.676,47.239,0C687.41,443.314,778.624,382.047,736.243,343.319z M660.132,377.438
		c-0.508,13.93-7.97,20.901-17.061,26.246C642.707,393.965,646.579,377.577,660.132,377.438z"/>
	<path d="M759.861,372.189c9.368,12.763,28.154,2.938,24.936-10.5C781.215,346.74,755.402,351.055,759.861,372.189z
		 M772.984,370.877c-10.297-0.751-4.012-17.954,5.25-10.499C778.637,366.028,778.327,370.97,772.984,370.877z"/>
</g>
</svg>
