<?xml version="1.0" encoding="utf-8"?>
<!-- Generator: Adobe Illustrator 15.0.2, SVG Export Plug-In . SVG Version: 6.00 Build 0)  -->
<!DOCTYPE svg PUBLIC "-//W3C//DTD SVG 1.0//EN" "http://www.w3.org/TR/2001/REC-SVG-20010904/DTD/svg10.dtd">
<svg version="1.0" id="arrow_left" xmlns="http://www.w3.org/2000/svg" xmlns:xlink="http://www.w3.org/1999/xlink" x="0px" y="0px"
	 width="800px" height="800px" viewBox="0 0 800 800" enable-background="new 0 0 800 800" xml:space="preserve">
<path d="M134.67,386.813c41.547-52.94,159.42-56.296,184.283-109.062c-3.764,0-7.528,0-11.283,0
	c-88.868,45.27-186,82.271-274.538,127.867c79.715,53.164,161.347,104.408,248.214,150.43c-10.688-42.631-60.562-51.83-94.02-71.455
	c-35.321-20.707-72.424-39.1-94.02-71.455c153.139,0.154,320.171,0,503.937,0c61.168,0,127.33,10.713,173-15.045
	C561.539,384.082,350.309,411.902,134.67,386.813z"/>
</svg>
