<?xml version="1.0" encoding="utf-8"?>
<!-- Generator: Adobe Illustrator 15.0.2, SVG Export Plug-In . SVG Version: 6.00 Build 0)  -->
<!DOCTYPE svg PUBLIC "-//W3C//DTD SVG 1.0//EN" "http://www.w3.org/TR/2001/REC-SVG-20010904/DTD/svg10.dtd">
<svg version="1.0" id="gallery" xmlns="http://www.w3.org/2000/svg" xmlns:xlink="http://www.w3.org/1999/xlink" x="0px" y="0px"
	 width="800px" height="800px" viewBox="0 0 800 800" enable-background="new 0 0 800 800" xml:space="preserve">
<g>
	<path d="M629.067,353.289c12.218,0.646,17.176-5.961,19.837-14.875c2.161-7.124-7.87-2.048-6.613-8.264
		c7.226-10.659,22.696-7.992,24.79,3.304c5.789,31.251-46.738,70.4-66.11,79.333c0.625-12.312,4.623-29.175,1.65-39.666
		c-19.425,5.365-21.829,27.749-44.619,29.751c-11.273-11.153,12.59-31.354-3.309-36.362c-18.057,9.494-21.76,47.648-52.887,49.582
		c-14.688-21.874,8.736-42.563,11.568-62.803c-14.195,1.782-30.473,1.481-41.318,6.612c-11.697,17.669-27.695,62.978-51.236,49.583
		c11.609-8.413,33.539-52.549,8.264-54.542c-21.181-1.67-22.072,34.148-24.789,56.193c-11.226,3.607-29.017,2.195-31.4-8.263
		c17.493-24.382,65.874-67.633,39.664-102.472c-34.859,15.826-50.381,50.986-51.234,100.819
		c-8.704,6.172-16.404,13.344-33.056,11.568c-1.028-4.48-6.903-4.113-6.611-9.915c17.534-28.034,59.486-54.909,42.973-100.818
		c-36.414-5.503-57.059,64.671-56.193,104.122c-8.486,5.198-25.952,11.215-28.098-3.304c2.007-11.2,8.935-10.062,8.264-21.487
		c-2.661-45.369-68.223,15.372-74.374,18.18c1.945-14.849,10.907-25.618,0-36.359c-38.601-14.663-69.154,26.428-54.539,59.498
		c17.361,7.392,31.122-8.806,39.665-9.916c-18.99,29.012-63.149,57.195-49.582,102.47c58.132-1.597,36.934-105.027,84.289-117.345
		c0.091,7.622-0.732,16.158,1.652,21.486c10.096,9.436,25.476,2.028,33.055-4.959c10.064,13.431,29.199,8.772,41.318,0
		c12.273,14.442,40.043,6.694,51.235-3.305c8.683,12.866,36.192,14.843,49.582,4.957c45.938,31.213,47.148-65.29,89.25-49.582
		c-5.839,14.927-17.46,36.657-8.264,56.193c2.84-0.089,4.236,1.273,4.955,3.307c22.879,1.945,27.011-14.863,42.973-19.834
		c12.408,33.554,43.271-2.709,52.887-9.915c0.966,8.677-2.912,12.512-1.65,21.484c-25.775,30.42-66.549,45.839-69.418,99.166
		c6.093,10.993,23.416,9.547,33.055,3.305c21.865-14.159,35.973-67.804,42.973-92.553c27.374-19.474,97.373-63.75,69.415-112.388
		C640.671,306.737,618.011,329.529,629.067,353.289z M164.647,490.465c-4.305-23.896,14.341-38.32,24.792-52.887
		C193,453.923,184.166,486.213,164.647,490.465z M174.565,404.524c-10.309-19.419,10.102-43.214,33.055-34.708
		C208.119,391.91,195.917,409.753,174.565,404.524z M257.203,402.872c-10.602-13.724,6.345-36.812,19.832-26.444
		C273.799,388.616,272.788,403.031,257.203,402.872z M353.061,323.539c2.562,30.176-18.34,51.027-34.707,67.762
		C324.004,362.798,326.161,330.795,353.061,323.539z M402.643,331.803c0.894,24.119-14.551,45.985-33.055,56.193
		C373.959,362.618,383.012,341.922,402.643,331.803z M427.434,363.205c7.615,10.017-1.109,30.292-11.568,33.056
		C411.633,383.453,420.03,369.801,427.434,363.205z M549.738,497.076c-6.795-25.972,18.259-47.52,36.354-59.498
		C577.141,460.574,573.167,488.556,549.738,497.076z"/>
	<path d="M113.413,520.216c14.631,1.96,17.465-7.876,19.834-18.179C122.719,481.553,97.14,505.366,113.413,520.216z M124.983,510.3
		c-3.148,0.709-4.153,3.561-8.265,3.305c-3.91-4.396-0.992-11.983,3.306-13.222C123.581,501.785,125.871,504.452,124.983,510.3z"/>
	<path d="M184.482,520.216c-28.231-3.489-19.908,29.009-3.307,24.79C189.239,542.958,192.966,527.4,184.482,520.216z
		 M174.565,536.742c1.366-4.669-2.33-4.28-1.654-8.263c5.031-2.075,6.428-1.264,9.918,1.652
		C182.519,534.781,179.952,537.172,174.565,536.742z"/>
	<path d="M128.288,549.965c6.718,6.272,19.036,2.469,23.138-3.307c0-4.955,0-9.916,0-14.874
		C138.482,522.122,121.85,534.809,128.288,549.965z M143.163,546.658c-1.922-0.268-2.941,0.366-3.307,1.652
		c-5.015-0.518-6.706-9.335-3.304-13.221c2.203,0,4.407,0,6.611,0C142.602,540.214,146.988,542.984,143.163,546.658z"/>
</g>
</svg>
