<?xml version="1.0" encoding="utf-8"?>
<!-- Generator: Adobe Illustrator 15.0.2, SVG Export Plug-In . SVG Version: 6.00 Build 0)  -->
<!DOCTYPE svg PUBLIC "-//W3C//DTD SVG 1.0//EN" "http://www.w3.org/TR/2001/REC-SVG-20010904/DTD/svg10.dtd">
<svg version="1.0" id="Layer_1" xmlns="http://www.w3.org/2000/svg" xmlns:xlink="http://www.w3.org/1999/xlink" x="0px" y="0px"
	 width="800px" height="800px" viewBox="0 0 800 800" enable-background="new 0 0 800 800" xml:space="preserve">
<g>
	<path fill="#FFFFFF" d="M366.666,445.87c-0.753-0.039-1.495-0.061-2.265-0.121C365.155,445.809,365.91,445.846,366.666,445.87z"/>
	<path fill="#FFFFFF" d="M432.077,390.589c0.352,0.705,0.658,1.417,0.938,2.131C432.74,392.008,432.431,391.297,432.077,390.589z"/>
	<path fill="#FFFFFF" d="M433.169,393.136c0.172,0.46,0.314,0.925,0.456,1.388C433.488,394.061,433.337,393.599,433.169,393.136z"/>
	<path fill="#FFFFFF" d="M132.636,366.485c4.485,11.271,9.891,25.44,15.297,37.082C142.662,391.863,137.121,377.756,132.636,366.485
		z"/>
	<path fill="#FFFFFF" d="M125.22,339.6c-0.39-0.06-0.703-0.18-0.949-0.344C124.507,339.418,124.817,339.538,125.22,339.6z"/>
	<path d="M395.458,308.544c6.217,1.138,6.903-9.977,0-7.88C391.525,301.858,391.315,307.784,395.458,308.544z M397.776,302.518
		c1.757,1.84,0.695,4.966-2.317,4.635C393.608,305.485,393.468,301.49,397.776,302.518z"/>
	<path d="M424.197,314.57c2.464-3.559-1.23-7.821-5.1-6.026C412.973,311.385,421.271,318.798,424.197,314.57z M423.271,311.788
		c0.219,1.456-1.249,1.225-1.391,2.318c-1.842-0.477-3.464-1.172-3.245-3.709C420.117,309.368,422.771,310.374,423.271,311.788z"/>
	<path d="M371.818,316.424c1.478-1.304,2.233-3.329,1.854-6.489C365.959,304.013,361.246,317.837,371.818,316.424z M372.282,311.324
		c0.296,1.842-0.588,2.502-1.39,3.246c-2.35,0.031-3.667-0.968-3.709-3.246C368.68,310.699,371.191,309.775,372.282,311.324z"/>
	<path d="M757.939,336.355c-6.025,2.86-17.292,13.149-7.879,19.469c3.1,2.082,7.104,2.259,11.124-0.464
		c0.576-4.49-0.915-5.573-3.245-5.562c-3.084,0.014-2.229,3.793-4.171,4.172c-4.513-1.577-3.421-6.353-1.392-9.27
		c5.418-7.792,20.707-7.487,25.031,0c4.276,7.401-1.686,17.544-6.953,23.639c-8.902,10.303-23.425,19.188-38.474,22.714
		c-3.987,0.934-8.642,2.177-12.515,2.318c-1.682,0.06-3.609-0.715-5.562-0.928c-6.104-0.664-15.648-1.554-18.077-5.562
		c-1.865-3.077,0.123-8.787-2.317-12.051c-4.299-0.436-7.386,0.339-9.271,2.318c-1.311-0.697-1.974-2.043-3.708-2.318
		c-2.675,1.033-5.236,2.18-7.879,3.244c-0.391-8.285-10.605-5.183-15.761-1.391c-4.849,3.566-9.034,9.726-13.442,11.124
		c-4.76,1.513-8.438-0.38-9.734-4.635c2.538-2.292,5.45-4.331,8.807-6.953c2.751-2.146,5.842-6.049,8.808-6.953
		c5.249-1.601,13.136,1.619,16.224-3.708c-3.785-0.901-8.967,0.9-12.516,0c5.235-4.436,9.34-9.292,13.441-14.37
		c1.267-1.567,3.482-2.929,4.636-4.635c0.642-0.95,2.568-4.088,3.237-5.289c1.822-3.27,2.983-4.301,4.875-7.889
		c2.3-4.362,5.02-10.706,4.403-15.562c-0.316-2.493-3.715-6.754-6.953-6.026c-10.326,2.32-14.462,8.244-21.321,14.833
		c-3.745,3.598-7.797,7.109-10.661,11.125c-6.73,9.428-11.195,20.249-15.298,28.739c-2.346-0.141-4.958,0.259-7.416,0.462
		c-2.228,0.186-6.007-0.091-6.953,1.391c2.754,2.345,10.413-0.215,13.907,1.391c-0.292,4.191-1.371,7.591-0.929,12.516
		c-5.298,2.428-10.988,6.933-15.76,8.344c3.012-5.837,7.016-16.28-3.244-15.76c-3.57,0.18-9.692,3.934-13.443,6.953
		c-3.824,3.076-6.056,8.675-9.271,7.416c0.664-3.563,3.849-6.891,3.245-10.197c-3.64-4.931-7.655,0.945-11.588,2.317
		c1.331-4.796-2.87-4.922-6.026-3.708c-1.397,0.538-3.124,2.056-5.1,3.245c-1.789,1.078-4.047,1.686-5.562,2.782
		c-2.828,2.046-4.627,5.977-7.417,5.562c-1.013-4.567,2.41-8.292,3.708-12.051c-4.415-0.51-6.036,4.615-8.806,6.953
		c-1.363,1.149-3.788,2.637-5.562,3.707c-4.374,2.641-9.066,4.1-13.906,1.391c13.777-14.088,30.334-28.085,38.937-47.28
		c2.769-6.176,7.863-13.468,5.562-21.786c-4.651-2.443-12.936,2.574-16.687,5.562c-3.396,2.708-6.58,6.97-10.198,10.661
		c-10.036,10.241-18.745,25.574-22.713,39.863c-15.723-5.881-28.738,27.833-40.791,9.271c9.97-8.054,18.4-16.24,26.422-25.957
		c2.952-3.576,5.885-7.322,8.343-11.125c5.066-7.833,13.293-18.736,13.443-30.129c-4.758-3.534-11.911-0.613-16.224,1.854
		c-3.229,1.848-6.851,6.108-10.198,9.733c-11.852,12.843-25.292,26.988-26.421,47.744c-12.344-6.145-17.659,9.034-26.885,12.516
		c-1.502,0.567-2.678-0.189-4.172,1.391c4.389,3.863,9.45-1.807,12.515-3.709c1.668,11.363,15.998,4.233,20.397,0
		c0.974,1.869,1.817,3.339,3.244,4.173c7.926,4.628,16.39-2.229,21.785-5.099c-0.817,1.708-0.402,4.218,0,6.026
		c1.693,0.459,2.621,2.039,3.708,2.317c7.905,2.02,13.435-4.653,17.615-4.635c1.367,0.005,2.806,1.452,4.171,1.854
		c4.699,1.385,10.302-0.066,13.441-1.854c1.999-1.138,3.418-4.063,6.026-4.171c-1.761,3.463-0.402,7.063,2.318,7.416
		c2.64,0.344,7.938-5.104,11.126-7.416c4.48-3.251,8.094-6.423,12.051-6.953c-1.391,5.253-5.629,7.658-6.953,12.978
		c3.744,0.234,4.512-3.955,6.49-6.025c2.769-2.899,6.389-6.204,11.125-5.563c-0.741,3.64-3.985,7.068-2.782,11.125
		c3.552,1.736,5.597-1.735,7.881-2.782c1.583,9.941,12.565,2.378,17.15,0c-2.286,5.562-9.158,7.207-14.833,9.271
		c-5.691,2.069-12.153,3.655-18.078,6.026c-8.31,3.324-17.177,7.794-24.567,11.589c-6.212,3.188-10.018,5.983-14.833,9.734
		c-2.338,1.82-5.193,3.752-6.953,5.562c-3.989,4.103-9.317,13.544-9.271,20.859c0.041,6.342,4.785,13.718,9.734,14.832
		c10.719,2.414,20.387-2.853,26.421-6.025c6.059-3.187,10.139-5.365,14.833-9.271c5.174-4.306,10.552-9.446,14.37-14.37
		c2.145-2.766,3.759-4.734,5.719-7.889c3.039-4.888,6.823-10.712,9.578-16.215c1.325-2.649,2.289-5.961,3.707-8.807
		c1.343-2.694,2.585-6.212,4.173-8.344c2.439-3.277,7.063-4.613,11.124-6.953c2.951-1.701,5.965-3.982,9.271-4.635
		c1.729,7.92,13.724,6.584,18.542,2.318c-0.044,13.455,13.627,6.607,18.54,0.926c1.021-1.177,1.339-2.964,2.318-4.171
		c2.571-3.168,6.002-5.012,9.271-5.099c-0.452,5.574-4.378,7.674-5.562,12.516c3.178,0.449,4.289-4.093,6.489-6.953
		c1.646-2.139,5.671-7.177,8.344-6.49c4.269,1.098,1.051,6.697,2.318,10.197c1.071,2.962,9.032,5.397,11.588,6.026
		c6.229,1.534,12.169,2.557,18.078,2.318c15.417-0.623,29.628-8.442,39.863-15.297c4.063-2.72,8.272-5.435,10.662-7.88
		c4.379-4.48,10.645-14.497,11.124-21.786C783.909,336.942,768.977,331.118,757.939,336.355z M469.159,389.662
		c-5.418-4.076,1.267-12.514,7.418-10.662c2.951,0.89,2.317,3.954,4.171,6.489C478.519,388.513,474.348,389.596,469.159,389.662z
		 M483.529,383.636c-0.522-13.969,5.675-25.218,12.516-34.765c6.839-9.545,15.215-17.271,24.103-23.176
		c1.041-0.69,2.551-1.681,5.101-0.464c0.063,14.292-9.457,23.947-16.688,32.912C501.091,367.401,493.487,377.171,483.529,383.636z
		 M513.195,386.88c-0.776-3.681,4.863-8.713,9.271-7.416c3.318,0.976,2.922,4.663,4.635,7.88
		C523.764,389.15,514.262,391.938,513.195,386.88z M543.324,347.48c3.725-5.231,7.322-10.155,11.126-13.442
		c3.519-3.042,7.261-5.903,12.516-6.026c2.375,8.425-2.281,16.508-6.026,22.713c-8.496,14.079-18.728,26.71-31.521,35.229
		C527.439,369.329,535.906,357.904,543.324,347.48z M592.46,425.818c-5.793,8.771-11.571,15.958-20.396,22.712
		c-5.52,4.223-11.607,8.752-17.15,11.124c-3.254,1.394-7.133,2.318-12.516,2.318c-5.814,0-9.786-1.678-11.589-5.562
		c-2.119-4.57-1.245-13.952,1.392-19.005c2.716-5.203,8.754-9.887,14.368-13.905c15.943-11.409,41.46-20.519,60.26-26.422
		c0.396-0.084,0.438,0.182,0.464,0.464C603.982,407.316,598.106,417.266,592.46,425.818z M600.339,389.662
		c-2.363-6.596,6.81-13.568,13.906-10.662C612.844,385.788,607.033,388.167,600.339,389.662z M659.672,330.33
		c3.8-3.214,10.032-7.899,16.224-6.953c1.823,7.628-2.122,16.912-6.49,23.177c-1.385,1.987-3.585,3.369-5.099,5.099
		c-1.61,1.841-2.772,3.698-4.635,5.562c-2.665,2.666-7.899,8.567-10.662,9.271c-3.046,0.776-9.024-0.894-12.979,0
		C639.953,354.488,649.65,338.805,659.672,330.33z M632.786,379c0.648-3.215,0.693-7.033,1.854-9.734
		c4.605-0.144,8.695-0.207,12.053,0c-1.881,2.263-4.583,3.437-6.954,5.099C637.547,375.9,635.485,378.129,632.786,379z
		 M654.572,388.735c-2.784-4.505,3.37-11.09,8.808-12.052c-0.396,3.021,0.596,4.657,1.39,6.489c1.849,0.255,1.396,0.255,3.246,0
		C667.032,387.508,657.869,394.069,654.572,388.735z M669.405,380.854c-3.044,0.865-3.338-2.914-2.317-4.635
		c0.619,0,1.236,0,1.854,0C669.722,377.998,669.949,379.213,669.405,380.854z"/>
	<path d="M433.169,393.136c-0.052-0.139-0.101-0.278-0.154-0.417c-0.279-0.714-0.586-1.426-0.938-2.131
		c-2.638-5.287-7.771-9.36-15.76-8.344c-5.96,0.759-17.415,9.601-12.053,16.687c1.307,1.726,11.744,4.12,8.809-3.708
		c-2.689-3.051-3.909,2.695-6.026,1.391c-2.752-7.798,7.261-14.12,15.297-11.588c2.685,0.847,6.117,4.961,7.416,7.88
		c4.15,9.318-0.777,21.977-5.099,27.812c-8.262,11.157-31.922,21.015-47.744,21.323c-14.029,0.272-22.932-2.914-30.593-11.126
		c-3.638-3.9-7.995-10.248-9.271-16.224c-2.316-10.846,0.512-23.859,4.636-31.521c1.304-2.422,3.647-5.458,5.562-7.879
		c5.246-6.636,10.188-11.203,18.078-14.833c5.58,5.5,23.078,5.729,21.786-4.171c-1.098-8.413-14.01-3.754-20.396-2.318
		c-8.999-20.286,8.735-35.337,24.104-38.01c10.014-1.741,17.187,1.903,20.396,7.881c4.973,9.267-1.375,21.349-11.589,17.15
		c0.271-2.72,4.14-3.912,1.391-6.025c-4.73-3.639-7.297,5.7-5.562,9.27c0.253,0.523,2.589,2.513,3.245,2.782
		c5.569,2.282,11.649-0.99,14.37-3.246c7.711-6.392,8.207-18.646,1.39-25.03c-6.154-5.765-24.911-7.31-33.374-3.708
		c-5.355,2.279-14.389,10.762-17.151,15.761c-2.483,4.493-5.317,11.638-4.171,19.468c0.425,2.907,1.546,2.728,2.781,7.416
		c-6.429,3.797-10.431,7.967-14.833,12.979c-4.266,4.858-9.073,11.331-11.588,16.688c-3.54,7.537-7.716,24.488-4.172,35.692
		c0.54,1.705,2.255,3.812,3.245,5.562c5.926,10.493,15.609,16.066,29.202,17.151c0.77,0.061,1.511,0.082,2.265,0.121
		c10.052,0.504,18.726-1.031,27.559-3.595c4.972-1.443,12.196-4.383,15.602-6.26c1.85-1.02,4.888-2.581,6.608-3.782
		c4.505-3.146,6.222-4.315,9.464-7.918c6.458-7.179,11.098-18.775,7.726-29.791C433.483,394.061,433.341,393.597,433.169,393.136z
		 M380.162,357.214c-0.694,3.633-7.637,2.4-9.734,0.927C371.83,355.672,378.1,355.027,380.162,357.214z"/>
	<path d="M210.045,416.084c-2.879-0.637-8.938,0.051-11.125,1.39c-2.067,1.266-7.581,10.902-1.854,12.516
		c2.873,0.809,5.793-1.38,5.099-4.636c-0.606-2.849-3.029-1.53-4.635-2.317c6.661-10.283,21.385-2.067,19.932,8.344
		c-1.058,7.572-12.886,12.679-22.713,11.588c-8.087-0.897-15.982-4.929-21.322-8.344c-4.202-2.687-6.511-5.101-9.734-7.88
		c-1.61-1.387-7.607-5.618-15.76-23.177c-5.406-11.642-10.812-25.812-15.297-37.082c2.107-2.815,4.508-5.468,6.953-8.344
		c2.408-2.832,4.118-6.434,7.416-7.88c4.234-1.857,9.035-1.542,13.443-3.245c4.694-1.815,13.182-6.391,16.224-9.271
		c1.91-1.809,8.422-10.593,6.49-16.224c-1.012-2.948-5.081-3.8-8.808-2.782c-4.504,1.23-11.07,7.214-13.906,10.198
		c-2.901,3.052-6.024,7.229-8.576,10.197c-2.525,2.939-5.212,8.099-7.648,8.808c-1.202,0.35-4.107,0.111-6.489,0
		c-7.837-0.365-14.836-3.991-15.296-8.808c-0.066-0.691-0.886-6.786,2.503-6.297c0.401,0.058,1.956,0.362,1.304,2.172
		c-0.738-0.085-1.417,0.276-1.912,0.827c-0.908,1.013-1.193,2.671-0.063,3.417c0.246,0.164,0.559,0.284,0.949,0.344
		c2.896,0.447,2.972-2.257,3.244-3.245c2.201-7.987-7.768-6.371-8.807-0.927c-0.399,2.088,0.454,5.927,0.927,6.953
		c2.582,5.61,11.041,8.641,21.786,8.343c-3.997,4.347-7.022,9.665-11.588,13.443c-7.228-9.23-19.001-11.588-32.91-11.588
		c-16.314,0-26.16,5.602-37.546,11.588c-7.164,3.766-14.375,7.65-19.468,12.051c-7.785,6.728-17.273,20.736-18.541,33.839
		c-0.351,3.624-0.487,6.727,0,9.734c1.126,6.956,8.925,16.618,14.833,19.468c1.527,0.736,3.897,1.244,5.562,1.391
		c15.562,1.364,26.613-5.671,36.156-12.053c14.393-9.623,24.442-24.363,35.229-37.082c2.813-3.317,5.871-6.532,8.344-9.733
		c2.85-3.69,4.161-8.297,7.88-10.662c7.443,14.282,11.819,28.693,19.004,42.181c5.5,10.322,11.661,16.01,21.323,22.25
		c4.736,3.059,9.575,6.773,14.833,8.343c2.064,0.617,5.203,1.498,8.269,2.003c2.422,0.399,4.642,0.397,6.563,0.315
		c5.72-0.245,14.932-5.143,17.151-8.345C222.653,430.382,217.998,417.84,210.045,416.084z M173.89,325.23
		c4.508,3.108-1.25,11.433-4.635,14.37c-5.292,4.593-14.321,6.254-19.468,7.88c0.933-4.538,5.948-7.881,10.197-12.051
		C164.147,331.343,167.394,326.11,173.89,325.23z M108.532,394.297c-2.704,3.31-5.185,6.231-7.88,9.734
		c-2.265,2.943-4.92,6.186-7.88,9.271c-5.487,5.719-12.783,12.255-20.859,16.224c-8.994,4.421-22.815,6.592-30.129,0.464
		c-8.255-6.916-11.007-22.097-5.562-34.301c1.139-2.554,3.453-5.117,5.099-7.881c2.502-4.199,3.907-7.915,6.954-11.124
		c7.097-7.477,20.893-13.694,32.447-17.614c7.89-2.676,19.708-4.873,29.666-2.318c1.555,0.4,3.376,1.629,5.099,2.318
		c5.007,2.005,10.136,4.098,12.979,8.344C123.246,376.532,115.75,385.459,108.532,394.297z"/>
	<path d="M771.382,325.694c2.647-7.707-13.612-6.557-6.953,1.854C767.48,327.837,770.618,327.919,771.382,325.694z M769.064,325.23
		c-1.244,0.993-2.464,0.993-3.707,0C764.732,321.913,769.875,321.445,769.064,325.23z"/>
	<path d="M431.614,328.476c-2.8-1.942-6.596,0.315-6.953,2.78C423.678,338.022,435.044,336.77,431.614,328.476z M426.515,330.793
		c1.6-0.779,2.053-0.014,4.172-0.464C431.688,335.202,424.755,334.368,426.515,330.793z"/>
	<path d="M749.134,328.939c-4.868-3.504-8.674,2.844-5.1,6.49C749.272,336.737,751.345,332.304,749.134,328.939z M745.425,333.574
		c-0.206-0.412-0.407-0.829-0.927-0.927C744.321,325.951,752.121,333.75,745.425,333.574z"/>
	<path d="M782.044,332.647c-0.321,2.354,1.285,2.622,3.708,5.099c2.575-0.785,4.973-0.882,5.562-2.781
		C793.202,328.888,782.875,326.553,782.044,332.647z M784.36,332.184c1.896-0.512,3.907-0.792,4.637,0.927
		C788.803,336.299,783.906,334.953,784.36,332.184z"/>
	<path d="M421.416,353.97c2.048-1.521,1.535-5.742,0-7.417C413.255,344.247,414.197,355.797,421.416,353.97z M420.488,352.58
		c-2.316-0.001-3.388-1.248-3.244-3.709c1.071-0.936,3.556-0.473,4.172,0.464C421.717,351.026,421.104,351.803,420.488,352.58z"/>
	<path d="M202.165,362.777c-0.479-5.694-11.627-3.782-6.953,3.708C198.98,368.021,202.389,365.43,202.165,362.777z M197.659,362.347
		c1.769-0.892,1.769,2.71,0,1.818C196.645,363.255,197.659,363.236,197.659,362.347z"/>
	<path d="M560.939,370.194c5.131,3.724,11.386-3.715,6.488-7.417C562.453,362.266,559.306,365.585,560.939,370.194z
		 M564.184,368.339c0.012-1.092-0.798-1.365-0.463-2.78c1.792-0.403,2.005,0.775,2.781,1.389
		C566.714,368.396,565.511,368.431,564.184,368.339z"/>
	<path d="M281.429,372.974c1.801,2.806,6.848,1.991,6.953-1.854c0.173-1.873-1.585-1.814-2.317-2.782
		c4.705-2.592,6.252,0.685,6.489,3.245c0.269,2.909-2.98,9.522-6.489,13.443c-4.339,4.848-11.586,8.737-16.688,9.271
		c-8.703,0.91-16.229-2.42-16.224-9.735c0.001-1.19,1.165-2.854,0.928-4.171c-0.564-3.128-4.087-5.326-5.563-5.562
		c-3.024-0.488-6.395,1.68-9.271,3.244c-6.858,3.73-10.204,7.337-15.76,11.125c-2.434,1.66-5.75,5.199-10.198,2.782
		c3.991-4.492,10.924-10.518,8.808-18.078c-6.976,2.577-17.334,11.469-25.958,14.37c-2.341,0.788-7.254,2.219-8.344,0
		c-2.063-4.201,6.431-9.449,4.171-12.515c-7.907,3.336-12.452,13.694-22.25,14.833c-3.046,0.354-6.804-1.401-7.88,0.464
		c1.863,2.847,6.648,2.791,9.734,2.318c5.596-0.86,10.599-6.572,14.369-8.344c-0.659,1.55-0.659,4.474,0,6.026
		c2.503,1.575,6.434,0.674,9.734,0.463c0.188,8.968,10.386,2.777,14.833,2.782c1.669,0.001,3.517,1.344,5.099,1.391
		c10.146,0.293,17.374-11.862,22.713-12.979c-3.318,4.82-2.942,11.544,2.781,11.588c5.424,0.042,5.751-5.683,10.197-7.417
		c-0.199,8.878,12.904,10.322,20.396,9.271c11.462-1.607,22.526-13.39,23.64-23.64C296.461,362.151,281.213,362.802,281.429,372.974
		z M201.702,391.979c0.425-4.686,5.411-3.027,6.026,0.463C205.752,392.255,202.952,392.892,201.702,391.979z M206.337,386.417
		c3.645-3.927,8.852-6.291,13.906-8.808c-1.843,5.265-4.768,9.449-8.808,12.516C208.9,389.725,208.987,386.703,206.337,386.417z
		 M250.836,382.245c-0.253,3.328-5.377,5.571-7.88,7.88C235.783,383.977,251.622,371.937,250.836,382.245z"/>
	<path d="M14.435,404.031c-3.025,1.133-2.959,6.614,0,7.416C20.841,413.185,20.654,401.703,14.435,404.031z M14.898,406.349
		c1.311-0.383,1.201,0.654,2.317,0.464c0.107,1.65-0.666,2.425-2.317,2.317C14.265,408.537,14.265,406.941,14.898,406.349z"/>
	<path d="M19.998,434.16c2.284-0.585,3.521-4.711,1.391-6.953C12.359,425.271,14.303,435.619,19.998,434.16z M19.534,431.842
		c-0.618,0-1.235,0-1.854,0c0.189-1.116-0.847-1.006-0.464-2.316c1.117,0.189,1.008-0.847,2.318-0.463
		C20.168,429.654,20.168,431.251,19.534,431.842z"/>
	<path d="M37.612,443.431c-0.441-0.196-1.974-0.458-3.708,0.464c-5.207,2.769,1.357,8.337,4.171,6.489
		C40.262,448.949,38.715,443.924,37.612,443.431z M36.685,448.53c-1.591-0.355-2.608-1.283-1.854-2.781
		C36.739,445.395,37.75,447.329,36.685,448.53z"/>
	<path d="M58.471,444.821c-3.47,1.805-2.05,7.529,1.391,7.88C66.233,453.354,64.617,441.628,58.471,444.821z M59.861,449.921
		c-0.701-0.655-1.464-2.252-0.463-3.244c1.639-0.25,2.388,0.392,2.781,1.389C62.246,449.523,60.99,449.66,59.861,449.921z"/>
	<path d="M517.83,453.165c0.047-1.9,0.093-3.798-0.463-5.1C508.021,443.534,510.423,459.841,517.83,453.165z M512.732,451.775
		c-0.022-1.412,0.979-1.802,1.39-2.781c1.646,0.052,1.866,1.533,1.854,3.245C514.552,452.897,513.893,452.447,512.732,451.775z"/>
	<path d="M520.611,470.315c-1.879,0.817-2.749,2.146-2.316,4.173c1.214,5.702,9.098,1.98,7.415-2.781
		C525.089,469.947,523.029,469.266,520.611,470.315z M521.074,475.415c-0.204-0.413-0.405-0.829-0.927-0.927
		c-0.567-3.342,2.604-3.027,4.173-1.854C523.978,474.301,523.4,475.731,521.074,475.415z"/>
	<path d="M545.643,471.243c-4.164,1.328-3.019,6.407,0.464,6.953C552.045,479.127,551.736,469.299,545.643,471.243z
		 M544.716,474.025c0.899-2.471,4.349-1.152,4.171,1.39C547.662,477.093,544.747,476.179,544.716,474.025z"/>
</g>
</svg>
