<?xml version="1.0" encoding="utf-8"?>
<!-- Generator: Adobe Illustrator 15.0.2, SVG Export Plug-In . SVG Version: 6.00 Build 0)  -->
<!DOCTYPE svg PUBLIC "-//W3C//DTD SVG 1.0//EN" "http://www.w3.org/TR/2001/REC-SVG-20010904/DTD/svg10.dtd">
<svg version="1.0" id="shop" xmlns="http://www.w3.org/2000/svg" xmlns:xlink="http://www.w3.org/1999/xlink" x="0px" y="0px"
	 width="800px" height="800px" viewBox="0 0 800 800" enable-background="new 0 0 800 800" xml:space="preserve">
<g>
	<path d="M392.844,285.371c10.871-3.102,11.301-30.396-6.411-24.046C371.036,266.846,377.871,289.645,392.844,285.371z
		 M384.872,267.121c8.91-4.493,8.91,13.653,0,9.16C384.872,273.228,384.872,270.173,384.872,267.121z"/>
	<path d="M333.532,299.799c11.038,0.35,15.408-5.967,14.426-17.636C335.493,268.493,319.473,290.712,333.532,299.799z
		 M337.69,283.768c8.134,1.303,0.906,12.085-3.892,5.839C334.485,287.05,337.225,286.546,337.69,283.768z"/>
	<path d="M543.533,339.875c2.309,0.896,3.914,2.499,4.805,4.808c11.014,1.926,13.889-4.283,16.029-11.22
		c-1.674-4.737-9.756-3.067-9.613-9.619c9.92-10.612,24.053-12.898,30.459,0c20.422,41.13-46.658,83.395-84.967,73.742
		c11.17-16.417,9.564-41.842-9.615-48.093c-25.295,1.423-35.109,18.324-52.902,27.251c-30.139-46.833-64.705,16.293-86.563,25.648
		c3.211-14.671,14.488-31.311,4.808-44.885c11.805-15.21,39.653-41.379,19.238-64.122c-11.083-1.977-21.554,3.555-27.253,9.618
		c-23.298,24.777-30.108,66.782-54.503,89.771c2.354-16.67-0.292-31.148-11.222-38.475c-27.389,14.293-41.671,41.688-73.741,51.299
		c-8.579-1.574-2.964-17.342-12.825-17.634c-15.542,15.271,9.146,36.562,27.253,24.046c17.872,26.159,45.225,0.688,75.343,0
		c14.991-14.529,33.811-40.08,52.902-40.076c0.385,15.607-17.83,31.145-3.208,41.681c10.275-0.414,13.492-7.887,22.443-9.619
		c1.967,28.994,42.482,13.667,52.902,8.015c-5.883,27.499-29.754,53.26-22.443,83.359c42.639-6.522,41.598-56.724,62.52-84.964
		c56.516,2.271,129.947-12.703,133.051-68.929C598.98,295.317,543.818,297.352,543.533,339.875z M234.142,407.203
		c5.626-4.822,9.065,2.803,14.428,3.204C247.204,414.977,235.429,414.617,234.142,407.203z M275.82,403.997
		c-45.066,2.957-21.226-21.848-1.602-32.062C286.219,375.9,278.875,396.156,275.82,403.997z M317.502,375.141
		c13.635-22.166,18.373-53.228,46.487-60.917C364.911,345.016,341.907,364.465,317.502,375.141z M394.446,410.407
		c-18.069-6.028-5.424-44.601,17.634-40.077c-1.639,9.025,2.581,20.574,9.619,25.65
		C413.467,401.727,407.035,414.609,394.446,410.407z M418.493,468.12c2.03-33.277,18.101-66.3,36.87-88.17
		C455.285,408.771,442.051,452.102,418.493,468.12z M489.029,394.378c-9.338,0.249-13.008-5.161-20.844-6.412
		c-1.324-18.958,7.771-27.495,28.861-24.046C503.895,374.426,498.18,390.348,489.029,394.378z"/>
	<path d="M391.242,322.239c11.358,9.527,24.9-4.925,22.443-14.425C409.825,292.883,381.913,299.764,391.242,322.239z
		 M399.257,307.814c3.718-0.513,6.155,0.256,8.015,1.602c-0.195,4.078-2.331,6.217-6.412,6.414
		C398.507,312.048,397.476,312.847,399.257,307.814z"/>
</g>
</svg>
